<svg width="24" height="24" viewBox="0 0 24 24" fill="none" xmlns="http://www.w3.org/2000/svg">
<g id="location-pin">
<path id="Vector (Stroke)" fill-rule="evenodd" clip-rule="evenodd" d="M21.1114 7.83441C20.0399 3.10029 15.9847 0.752693 12.0041 0.750002C8.02349 0.747312 3.96548 3.08953 2.88855 7.82364C2.13773 11.1403 3.01082 14.117 4.64143 16.6614C6.26289 19.1915 8.64699 21.3211 10.9913 23.0094C11.5912 23.4414 12.3985 23.4414 12.9984 23.0095C15.342 21.3224 17.7286 19.1957 19.3528 16.6682C20.9862 14.1263 21.8624 11.1521 21.1114 7.83441Z" fill="#6C5DD3"/>
<path id="Vector (Stroke)_2" fill-rule="evenodd" clip-rule="evenodd" d="M9.26338 7.07344C9.98915 6.34767 10.9735 5.93994 11.9999 5.93994C12.5081 5.93994 13.0113 6.04004 13.4809 6.23453C13.9504 6.42901 14.377 6.71407 14.7364 7.07344C15.0957 7.4328 15.3808 7.85943 15.5753 8.32896C15.7698 8.79849 15.8699 9.30173 15.8699 9.80994C15.8699 10.3182 15.7698 10.8214 15.5753 11.2909C15.3808 11.7605 15.0957 12.1871 14.7364 12.5464C14.377 12.9058 13.9504 13.1909 13.4809 13.3854C13.0113 13.5798 12.5081 13.6799 11.9999 13.6799C10.9735 13.6799 9.98915 13.2722 9.26338 12.5464C8.53761 11.8207 8.12988 10.8363 8.12988 9.80994C8.12988 8.78355 8.53761 7.7992 9.26338 7.07344Z" fill="#0E0A2C"/>
</g>
</svg>
