<svg width="84" height="84" viewBox="0 0 84 84" fill="none" xmlns="http://www.w3.org/2000/svg">
<rect width="84" height="84" rx="42" fill="#20BDA1" fill-opacity="0.25"/>
<circle cx="42" cy="42" r="30" fill="#20BDA1" fill-opacity="0.33"/>
<path fill-rule="evenodd" clip-rule="evenodd" d="M42 32C37.5817 32 34 36.0026 34 40.5C34 44.9622 36.5533 49.8124 40.5371 51.6744C41.4657 52.1085 42.5343 52.1085 43.4629 51.6744C47.4467 49.8124 50 44.9622 50 40.5C50 36.0026 46.4183 32 42 32ZM42 42C43.1046 42 44 41.1046 44 40C44 38.8954 43.1046 38 42 38C40.8954 38 40 38.8954 40 40C40 41.1046 40.8954 42 42 42Z" fill="#333333"/>
</svg>
